<svg xmlns="http://www.w3.org/2000/svg" xmlns:xlink="http://www.w3.org/1999/xlink" version="1.1" x="0px" y="0px" viewBox="0 0 100 125" style="enable-background:new 0 0 100 100;" xml:space="preserve"><path d="M18.939,71.182l-5.121-5.121c-0.586-0.586-0.586-1.536,0-2.121l2.121-2.121c0.586-0.586,1.536-0.586,2.121,0l5.121,5.121  c0.586,0.586,0.586,1.536,0,2.121l-2.121,2.121C20.475,71.767,19.525,71.767,18.939,71.182z"/><path d="M15.5,80h-6C8.672,80,8,79.328,8,78.5v-3C8,74.672,8.672,74,9.5,74h6c0.828,0,1.5,0.672,1.5,1.5v3  C17,79.328,16.328,80,15.5,80z"/><path d="M89.628,83.459l-0.002,0.002c-3.284,3.284-8.651,3.14-11.754-0.315l-27.76-30.91c3.081-2.736,5.969-5.668,8.69-8.76  l30.599,28.31C92.775,74.908,92.878,80.209,89.628,83.459z"/><path d="M61.965,30.257l-16.972-16.97c-1.172-1.172-1.172-3.07,0-4.242s3.07-1.172,4.242,0l16.972,16.97  c1.172,1.172,1.172,3.07,0,4.242C65.035,31.429,63.137,31.429,61.965,30.257z"/><path d="M58.783,33.438l-16.972-16.97c-0.082-0.082-0.138-0.178-0.215-0.263C34.291,21.661,27.91,28.039,22.45,35.34  c0.086,0.079,0.186,0.138,0.269,0.221l16.969,16.97c0.082,0.082,0.138,0.179,0.215,0.264c7.304-5.457,13.69-11.833,19.148-19.137  C58.965,33.58,58.866,33.521,58.783,33.438z M41.25,39.06c-2.485,0-4.5-2.015-4.5-4.5s2.015-4.5,4.5-4.5s4.5,2.015,4.5,4.5  S43.735,39.06,41.25,39.06z"/><path d="M32.264,59.955l-16.969-16.97c-1.172-1.172-1.172-3.07,0-4.242s3.07-1.172,4.242,0l16.969,16.97  c1.172,1.172,1.172,3.07,0,4.242C35.334,61.127,33.436,61.127,32.264,59.955z"/><path d="M53,87.5v3c0,0.828-0.672,1.5-1.5,1.5h-33c-0.828,0-1.5-0.672-1.5-1.5v-3c0-0.829,0.672-1.5,1.5-1.5H23v-6  c0-1.657,1.343-3,3-3h18c1.657,0,3,1.343,3,3v6h4.5C52.328,86,53,86.671,53,87.5z"/><text x="0" y="115" fill="#000000" font-size="5px" font-weight="bold" font-family="'Helvetica Neue', Helvetica, Arial-Unicode, Arial, Sans-serif">Created by Ayub Irawan</text><text x="0" y="120" fill="#000000" font-size="5px" font-weight="bold" font-family="'Helvetica Neue', Helvetica, Arial-Unicode, Arial, Sans-serif">from the Noun Project</text></svg>